<?xml version="1.0" encoding="utf-8"?>
<!-- Generator: Adobe Illustrator 21.0.2, SVG Export Plug-In . SVG Version: 6.00 Build 0)  -->
<svg version="1.1" id="Layer_1" xmlns="http://www.w3.org/2000/svg" xmlns:xlink="http://www.w3.org/1999/xlink" x="0px" y="0px"
	 viewBox="0 0 841.9 595.3" style="enable-background:new 0 0 841.9 595.3;" xml:space="preserve">
<style type="text/css">
	.st0{fill:none;stroke:#231F20;stroke-miterlimit:10;}
	.st1{fill:#5FFA00;stroke:#231F20;stroke-miterlimit:10;}
	.st2{fill:url(#SVGID_1_);}
	.st3{fill:url(#SVGID_2_);}
	.st4{fill:url(#SVGID_3_);}
	.st5{fill:url(#SVGID_4_);}
	.st6{fill:url(#SVGID_5_);}
	.st7{fill:#FFFFFF;}
</style>
<title>Bird golden ratio</title>
<g id="Layer_3">
	<path class="st0" d="M336.4,282.7v0.5l0,0C336.4,283,336.4,282.9,336.4,282.7z"/>
	<path class="st1" d="M336.4,282.7v0.5l0,0C336.4,283,336.4,282.9,336.4,282.7z"/>
	<path class="st0" d="M336.4,282.7v0.5l0,0C336.4,283,336.4,282.9,336.4,282.7z"/>
	<path class="st0" d="M336.4,282.7v0.5l0,0C336.4,283,336.4,282.9,336.4,282.7z"/>
	
		<linearGradient id="SVGID_1_" gradientUnits="userSpaceOnUse" x1="499.37" y1="377.3912" x2="534.39" y2="377.3912" gradientTransform="matrix(1 0 0 -1 0 595)">
		<stop  offset="0" style="stop-color:#FFF33B"/>
		<stop  offset="4.000000e-02" style="stop-color:#FEE72E"/>
		<stop  offset="0.12" style="stop-color:#FED51B"/>
		<stop  offset="0.2" style="stop-color:#FDCA10"/>
		<stop  offset="0.28" style="stop-color:#FDC70C"/>
		<stop  offset="0.67" style="stop-color:#F3903F"/>
		<stop  offset="0.89" style="stop-color:#ED683C"/>
		<stop  offset="1" style="stop-color:#E93E3A"/>
	</linearGradient>
	<path class="st2" d="M534.4,214.8c-0.9,1.9-1.9,3.8-3,5.6c-1.1,1.9-2.3,3.8-3.6,5.7c-0.5-0.5-1-1-1.5-1.4
		c-7.5-7.3-16.8-12.4-27-14.8c8.7-1.5,17.6-1.1,26,1.4C528.5,212.2,531.5,213.4,534.4,214.8z"/>
	
		<linearGradient id="SVGID_2_" gradientUnits="userSpaceOnUse" x1="361.059" y1="311.2878" x2="543.6" y2="311.2878" gradientTransform="matrix(1 0 0 -1 0 595)">
		<stop  offset="0" style="stop-color:#662D91"/>
		<stop  offset="1" style="stop-color:#EE2A7B;stop-opacity:0.8"/>
	</linearGradient>
	<path class="st3" d="M543.6,265.8v0.3c0,1.9-0.1,3.8-0.2,5.7c-3.1,50.3-46.4,88.6-96.7,85.4c-14.3-0.9-28.1-5.1-40.4-12.3
		c-13,7.4-27.6,11.5-42.6,11.9c9-8.2,16.2-18,21.3-29l0,0l0,0c-24.7-27-30.9-66-15.8-99.3c0.1-0.2,0.1-0.4,0.2-0.6
		c1.1-2.5,2.4-4.9,3.8-7.3l0,0c10.5,18.1,26.8,32.1,46.3,39.6c3.2,1.3,6.6,2.3,9.9,3.2c7.4,1.9,15.1,2.9,22.8,2.9l0,0v-0.5
		c0.3-27.4,20-50.8,47-55.6c10.2,2.3,19.5,7.4,27,14.8c0.5,0.5,1,1,1.5,1.4l0,0c9.4,9.8,15,22.7,15.7,36.3c0,0.4,0,0.9,0,1.3
		C543.6,264.5,543.6,265.1,543.6,265.8z"/>
	
		<linearGradient id="SVGID_3_" gradientUnits="userSpaceOnUse" x1="373.11" y1="331.2811" x2="543.6" y2="331.2811" gradientTransform="matrix(1 0 0 -1 0 595)">
		<stop  offset="0" style="stop-color:#DA1C5C"/>
		<stop  offset="1" style="stop-color:#2484C6;stop-opacity:0"/>
	</linearGradient>
	<path class="st4" d="M543.6,266.3v0.3c0,1.9-0.1,3.8-0.2,5.7c-25.2,43.7-81,58.6-124.7,33.4c-28.3-16.3-45.7-46.4-45.7-79
		c0-1.9,0.1-3.8,0.2-5.7l0,0c10.5,18.1,26.8,32.1,46.3,39.6c3.2,1.3,6.6,2.3,9.9,3.2c7.4,1.9,15.1,2.9,22.8,2.9c0-0.2,0-0.4,0-0.5
		c0.3-31.5,26-56.8,57.5-56.5c8.5,0.1,16.9,2,24.5,5.8c-0.9,1.9-1.9,3.8-3,5.6c-1.1,1.9-2.3,3.8-3.6,5.7c9.4,9.8,15,22.7,15.8,36.4
		c0,0.4,0,0.9,0,1.3C543.6,265,543.6,265.6,543.6,266.3z"/>
	
		<linearGradient id="SVGID_4_" gradientUnits="userSpaceOnUse" x1="487.52" y1="358.87" x2="507.44" y2="358.87" gradientTransform="matrix(1 0 0 -1 0 595)">
		<stop  offset="0" style="stop-color:#F1F2F2"/>
		<stop  offset="0.6" style="stop-color:#FFFFFF"/>
		<stop  offset="1" style="stop-color:#FFFFFF"/>
	</linearGradient>
	<circle class="st5" cx="497.5" cy="236.1" r="10"/>
	
		<linearGradient id="SVGID_5_" gradientUnits="userSpaceOnUse" x1="493.74" y1="353.89" x2="503.7" y2="353.89" gradientTransform="matrix(1 0 0 -1 0 595)">
		<stop  offset="0" style="stop-color:#F1F2F2"/>
		<stop  offset="0.6" style="stop-color:#BA118E"/>
		<stop  offset="1" style="stop-color:#FFFFFF"/>
	</linearGradient>
	<circle class="st6" cx="498.7" cy="241.1" r="5"/>
	<circle class="st7" cx="494.4" cy="239.3" r="1.6"/>
	<circle class="st7" cx="521.2" cy="214.4" r="1.6"/>
</g>
</svg>
