<svg id="Layer_1" data-name="Layer 1" xmlns="http://www.w3.org/2000/svg" xmlns:xlink="http://www.w3.org/1999/xlink" viewBox="0 0 841.89 595.28"><defs><style>.cls-1,.cls-5{fill:none;}.cls-1{stroke:#231f20;}.cls-1,.cls-2,.cls-3,.cls-4,.cls-5,.cls-6{stroke-miterlimit:10;}.cls-2,.cls-3,.cls-4,.cls-5{stroke:#fff;}.cls-2{fill:url(#linear-gradient);}.cls-3{fill:url(#linear-gradient-2);}.cls-4{fill:url(#linear-gradient-3);}.cls-6{stroke:#ec008c;fill:url(#linear-gradient-4);}</style><linearGradient id="linear-gradient" x1="223.3" y1="274.07" x2="283.8" y2="274.07" gradientUnits="userSpaceOnUse"><stop offset="0" stop-color="#27aae1"/><stop offset="1" stop-color="#e6e7e8"/></linearGradient><linearGradient id="linear-gradient-2" x1="236.93" y1="292.32" x2="249.13" y2="292.32" xlink:href="#linear-gradient"/><linearGradient id="linear-gradient-3" x1="223.3" y1="219.55" x2="271.5" y2="219.55" xlink:href="#linear-gradient"/><linearGradient id="linear-gradient-4" x1="172.72" y1="301.39" x2="325.39" y2="301.39" xlink:href="#linear-gradient"/></defs><title>Sea Ilustration</title><line class="cls-1" x1="223.3" y1="203.7" x2="237.34" y2="203.7"/><path class="cls-2" d="M283.8,275.92l-34.68,16H236.92c-4.68-.43-9.24-.89-13.62-1.38V256.25h48.2Z"/><path class="cls-3" d="M249.13,291.89l-1.87.86c-3.49-.26-6.94-.55-10.32-.86Z"/><polygon class="cls-4" points="271.5 256.25 223.3 256.25 223.3 182.85 248.85 220.8 255.59 230.81 256.37 232.06 263.41 243.32 271.5 256.25"/><line class="cls-5" x1="223.3" y1="220.8" x2="248.85" y2="220.8"/><line class="cls-5" x1="223.3" y1="212.46" x2="243.02" y2="212.46"/><line class="cls-5" x1="223.3" y1="232.06" x2="256.57" y2="232.06"/><line class="cls-5" x1="223.3" y1="243.32" x2="263.41" y2="243.32"/><line class="cls-5" x1="271.73" y1="256.25" x2="271.5" y2="256.25"/><path class="cls-5" d="M223.3,270.91c7.3,0,7.3,4,14.61,4s7.3-4,14.6-4,7.31,4,14.61,4,7.31-4,14.61-4"/><path class="cls-6" d="M325.39,291c-55.65,46.25-169.67,29.53-150.54-7.41,0,0,20.75,3.83,48.45,6.89,4.38.48,8.94.95,13.62,1.38h0c3.38.31,6.83.6,10.32.86C274,294.77,303.11,295.22,325.39,291Z"/></svg>