<svg id="Layer_2" data-name="Layer 2" xmlns="http://www.w3.org/2000/svg" xmlns:xlink="http://www.w3.org/1999/xlink" viewBox="0 0 841.89 595.28"><defs><style>.cls-1{fill:url(#linear-gradient);}.cls-2,.cls-4{stroke:#b9feff;stroke-miterlimit:10;}.cls-2{fill:url(#linear-gradient-2);}.cls-3{fill:#fff;}.cls-4{fill:#81b3ff;}.cls-5{fill:#414042;}.cls-6{fill:url(#linear-gradient-3);}.cls-7{fill:#ed1c24;}.cls-8{fill:#231f20;}.cls-9{fill:url(#linear-gradient-4);}.cls-10{fill:url(#linear-gradient-5);}.cls-11{fill:#6d6e71;}.cls-12{fill:#040a1a;}.cls-13{fill:#808285;}.cls-14{fill:url(#linear-gradient-6);}.cls-15{fill:url(#linear-gradient-7);}.cls-16{fill:url(#linear-gradient-8);}.cls-17{fill:url(#linear-gradient-9);}.cls-18{fill:url(#linear-gradient-10);}.cls-19{fill:url(#linear-gradient-11);}</style><linearGradient id="linear-gradient" x1="30.44" y1="262.15" x2="281.53" y2="262.15" gradientUnits="userSpaceOnUse"><stop offset="0" stop-color="#f9ed32"/><stop offset="0.16" stop-color="#f5e93a"/><stop offset="0.4" stop-color="#eade4f"/><stop offset="0.7" stop-color="#d8cb71"/><stop offset="1" stop-color="#c2b59b"/></linearGradient><linearGradient id="linear-gradient-2" x1="277.81" y1="282.97" x2="285.25" y2="282.97" gradientUnits="userSpaceOnUse"><stop offset="0" stop-color="#fff200"/><stop offset="1" stop-color="#c2b59b"/></linearGradient><linearGradient id="linear-gradient-3" x1="398.47" y1="226.08" x2="525.83" y2="226.08" gradientUnits="userSpaceOnUse"><stop offset="0" stop-color="#00a651"/><stop offset="1" stop-color="#c2b59b"/></linearGradient><linearGradient id="linear-gradient-4" x1="398.93" y1="249.55" x2="529.89" y2="249.55" gradientUnits="userSpaceOnUse"><stop offset="0" stop-color="#fff"/><stop offset="0.02" stop-color="#e5e5e5"/><stop offset="0.07" stop-color="#bdbcbc"/><stop offset="0.12" stop-color="#989697"/><stop offset="0.17" stop-color="#787676"/><stop offset="0.23" stop-color="#5d5a5b"/><stop offset="0.3" stop-color="#484445"/><stop offset="0.38" stop-color="#373334"/><stop offset="0.48" stop-color="#2c2829"/><stop offset="0.62" stop-color="#252122"/><stop offset="1" stop-color="#231f20"/></linearGradient><linearGradient id="linear-gradient-5" x1="362.52" y1="227.55" x2="442.08" y2="227.55" gradientUnits="userSpaceOnUse"><stop offset="0" stop-color="#ec008c"/><stop offset="1" stop-color="#c2b59b"/></linearGradient><linearGradient id="linear-gradient-6" x1="379.46" y1="270.59" x2="674.48" y2="270.59" gradientUnits="userSpaceOnUse"><stop offset="0" stop-color="#ec008c"/><stop offset="0.11" stop-color="#ea088d"/><stop offset="0.28" stop-color="#e51d8e"/><stop offset="0.48" stop-color="#dd4091"/><stop offset="0.71" stop-color="#d27095"/><stop offset="0.97" stop-color="#c4ad9a"/><stop offset="1" stop-color="#c2b59b"/></linearGradient><linearGradient id="linear-gradient-7" x1="282.71" y1="259.93" x2="398.36" y2="259.93" xlink:href="#linear-gradient-5"/><linearGradient id="linear-gradient-8" x1="527.74" y1="224.17" x2="588.62" y2="224.17" xlink:href="#linear-gradient-5"/><linearGradient id="linear-gradient-9" x1="278.21" y1="286.6" x2="399.77" y2="286.6" xlink:href="#linear-gradient-5"/><linearGradient id="linear-gradient-10" x1="399" y1="284.2" x2="529.89" y2="284.2" gradientUnits="userSpaceOnUse"><stop offset="0" stop-color="#c2b59b"/><stop offset="0.24" stop-color="#c3b29a"/><stop offset="0.4" stop-color="#c6a998"/><stop offset="0.55" stop-color="#cb9995"/><stop offset="0.68" stop-color="#d28390"/><stop offset="0.81" stop-color="#db6789"/><stop offset="0.93" stop-color="#e64481"/><stop offset="1" stop-color="#ee2a7b"/></linearGradient><linearGradient id="linear-gradient-11" x1="429.1" y1="224.68" x2="598.23" y2="224.68" xlink:href="#linear-gradient-4"/></defs><title>Artboard 1</title><path class="cls-1" d="M281.53,271.17,30.44,227.55s25,44.21,0,69.21c77-12.55,249.49-1.18,249.49-1.18"/><path class="cls-2" d="M279.66,295c2.13-1,4.14-5.8,4.77-11.45.12-1.09.25-2.1.37-3,.71-5.44,1.06-8.17-2.68-9.75-.16-.07-.37.06-.61.39-2.56,3.55-4.42,22.54-3.44,23.72A1.52,1.52,0,0,0,279.66,295Z"/><path class="cls-3" d="M284.51,319c.44-1.2-.29-2.88-1.71-3.91a3.29,3.29,0,0,0-4-.18c.12,2.16.25,4.12.41,5.91C282.12,321,284,320.39,284.51,319Z"/><path class="cls-4" d="M597.73,313.48c-1.63-3.6-3.74-5.64-6-5.76h-.24c-2.42,0-5,2-7.27,5.82,0,.2-.05.4-.07.59C586.85,312.71,593,310.19,597.73,313.48Z"/><path class="cls-4" d="M622.56,306.07c3.93.39,6.75-.42,8-2.33,1.36-2.08.9-5.38-1.28-9.39l-.49-.35C628.66,297.06,627.75,303.66,622.56,306.07Z"/><path class="cls-4" d="M608,302.6c2.31-3.21,3-6.06,2-8.1-1.12-2.22-4.21-3.49-8.79-3.6l-.54.25C603.25,292.81,608.51,296.91,608,302.6Z"/><path class="cls-5" d="M577.65,243.74l-.57,0c-.94,0-1.89-.07-2.84-.09-1.89,0-3.78,0-5.68,0-3.78,0-7.57,0-11.35.1q-5.12.08-10.24.19c9.15.34,18.29.58,27.45.27,1-.11,1.93-.16,2.88-.31Z"/><path class="cls-4" d="M626.84,320.4c1.62,3.6,3.74,5.64,6,5.76,2.51.14,5.12-1.91,7.5-5.82,0-.2.05-.4.07-.6C637.72,321.17,631.53,323.7,626.84,320.4Z"/><path class="cls-4" d="M602,327.82q-1-.1-1.85-.1c-3,0-5.11.83-6.15,2.43-1.36,2.08-.9,5.38,1.28,9.39l.49.35C595.91,336.82,596.82,330.23,602,327.82Z"/><path class="cls-4" d="M616.56,331.28c-2.31,3.21-3,6.06-2,8.1,1.12,2.22,4.21,3.49,8.79,3.59l.54-.24C621.32,341.07,616.06,337,616.56,331.28Z"/><path class="cls-4" d="M333.77,302.6c2.31-3.21,3-6.06,2-8.1-1.12-2.22-4.21-3.49-8.79-3.6l-.54.24C329,292.81,334.28,296.91,333.77,302.6Z"/><path class="cls-4" d="M323.49,313.48c-1.63-3.6-3.74-5.64-6-5.76h-.24c-2.42,0-5,2-7.27,5.82,0,.2-.05.4-.07.59C312.62,312.71,318.81,310.19,323.49,313.48Z"/><path class="cls-4" d="M348.33,306.07c3.93.39,6.75-.42,8-2.33,1.36-2.08.9-5.38-1.28-9.39l-.49-.35C354.43,297.06,353.51,303.66,348.33,306.07Z"/><path class="cls-4" d="M352.61,320.4c1.62,3.6,3.74,5.64,6,5.76,2.49.14,5.11-1.91,7.5-5.82,0-.2.05-.4.07-.6C363.48,321.17,357.3,323.7,352.61,320.4Z"/><path class="cls-4" d="M342.33,331.28c-2.31,3.21-3,6.06-2,8.1,1.12,2.22,4.21,3.49,8.79,3.59l.54-.24C347.09,341.07,341.83,337,342.33,331.28Z"/><path class="cls-4" d="M327.77,327.82q-1-.1-1.85-.1c-3,0-5.11.83-6.15,2.43-1.36,2.08-.9,5.38,1.28,9.39l.49.35C321.68,336.82,322.59,330.23,327.77,327.82Z"/><path class="cls-6" d="M431,220.77q-7.65,6.1-15.22,12.32c-5,4.13-10.07,8.3-14.91,12.62l-1.79,1.63-.44.41-.11.1-.06.05h0s0,0,0,0,0,0,0,.05,0,0,0,0h.07l.61,0,1.22,0,9.8-.3c26.14-.9,52.3-1.91,78.44-2.89l19.61-.69,9.81-.34,4.9-.16,2.45-.08h.43c0-.1,0-.2,0-.3-.07-.32-.13-.62-.19-.93-.18-1-.3-2-.41-3-.22-2-.39-3.89-.53-5.83-.26-3.88-.48-7.75-.62-11.63s-.23-7.75-.28-11.62l0-2.9,0-1.37a3.08,3.08,0,0,1,0-.42c0-.12,0-.24-.07-.36s-.1-.39-.16-.57a2.7,2.7,0,0,0-.1-.26l-.06-.12,0,0a3.09,3.09,0,0,1-.49,0l-.61,0-1.23.07-2.45.15-4.9.26-9.8.53-19.6,1c-6.53.34-13.06.6-19.58,1-3.26.18-6.52.35-9.76.58-1.62.11-3.24.24-4.83.39-.8.08-1.59.17-2.34.27-.38.05-.74.12-1,.18l-.16,0,0,0-.19.13c-.58.4-1.24.89-1.88,1.37l-1.92,1.48-3.84,3Z"/><path class="cls-3" d="M527.55,243.14h0Z"/><path class="cls-7" d="M665,255l-.67.32a12.93,12.93,0,0,1-2.49,1,1,1,0,0,0-.8,1.07c.62,5,3.62,20,7.82,23.66a2,2,0,0,0,1.73.43c1.57-.35,1.65-.59,1.7-.73a.79.79,0,0,1,.2-.33c.06-.62-1.23-4-2.48-7.3C666.82,264.75,664.24,257.55,665,255Z"/><path class="cls-8" d="M625.76,217.77c-15.59-12.35-26.55-19.38-31.38-20.19l-4.18.25c16.29,5.7,50.59,37.1,55.85,42.21h0a3.7,3.7,0,0,0,.35.33h0l.18.17a5.38,5.38,0,0,0,3.8.89,5.06,5.06,0,0,0,2.18-.65C651.3,239.22,639,228.27,625.76,217.77Z"/><polygon class="cls-3" points="446.5 208.66 446.47 208.67 446.49 208.67 446.5 208.66"/><path class="cls-9" d="M523,245l-4.9.27-9.8.56-19.59,1.12q-39.2,2.14-78.4,4.2l-9.81.49-1.23.06-.36,0,.06,2.63c6.13-.21,12.27-.32,18.4-.44l45-.79q22.49-.37,45-.92,11.28-.3,22.55-.68v-6.21l-1.83.09-.36,0h-.33a1.45,1.45,0,0,1-.36-.09.94.94,0,0,1-.25-.13l-.11-.11s0,0,0,0a1.87,1.87,0,0,1-.16-.15l0-.07-1,0Z"/><path class="cls-10" d="M428.12,205.4c-.06,0-.05,0-.11.07l-.49.5-1,1c-5.42,5.37-11.28,10.2-17.12,15.06s-11.84,9.53-18,13.92c-3.12,2.18-6.29,4.28-9.58,6.18-1.66.94-3.34,1.83-5.08,2.61a18.55,18.55,0,0,1-4.86,1.49v0c0,.26-.25.28-.64.3v-.06c-.91,0-4.06,0-8.68.28.41.15.84.27,1.27.39.74.18,1.49.33,2.25.46,1.52.27,3,.47,4.58.65,3.07.35,6.15.61,9.23.82s6.17.36,9.26.47c2,.07,4,.11,6,.12a3.83,3.83,0,0,1-.46-1.66,3.77,3.77,0,0,1,.69-2.32,3.69,3.69,0,0,1,.38-.46l.16-.16L396,245l.45-.43,1.8-1.71c4.83-4.5,9.77-8.81,14.75-13.08s10-8.43,15.14-12.56c2.56-2,5.12-4.09,7.72-6.11l3.92-3,2-1.48.27-.2c-1.9,0-3.79-.11-5.68-.2s-3.79-.22-5.69-.35l-.36,0-.43-.05a6.74,6.74,0,0,1-.79-.2A3,3,0,0,0,428.12,205.4Z"/><path class="cls-3" d="M666.71,309.82c-.79,1.09-1,2.08-.6,2.73s1.8,1.53,6.61.55l.09.44a54.46,54.46,0,0,0,1.24-7.14C671.42,305.89,668.24,307.73,666.71,309.82Z"/><path class="cls-3" d="M551.84,315.07h-6.35v5.75h6.35a2.08,2.08,0,0,0,2.08-2.08v-1.6A2.08,2.08,0,0,0,551.84,315.07Z"/><path class="cls-4" d="M533.72,317.15v1.6a2.08,2.08,0,0,0,2.08,2.08h9.07v-5.75H535.8A2.08,2.08,0,0,0,533.72,317.15Z"/><path class="cls-11" d="M665.59,312.89a2,2,0,0,1-.29-1.26l-8.83,1.23a50,50,0,0,1,.12,8.63,33.17,33.17,0,0,1-.83,5.39,16.78,16.78,0,0,1-.87,2.58,6.66,6.66,0,0,1-1.2,1.91c7.27-.1,12.75-3.48,16.27-10.06a33.38,33.38,0,0,0,2.83-7.58,18.9,18.9,0,0,1-3.66.43C667,314.15,666,313.53,665.59,312.89Z"/><path class="cls-12" d="M380.2,266.93a2.09,2.09,0,0,0,2.14,2l16.34-.43-.09-4.17-16.36.43A2.09,2.09,0,0,0,380.2,266.93Z"/><path class="cls-13" d="M293.84,319h-8.65v0a2.77,2.77,0,0,1-.1.32c-.33.88-1.4,2.26-5,2.26l-.88,0c.73,7.59,1.94,11.88,4.08,14s5.34,2,10.13,2c1,0,2.11,0,3.27,0a40.83,40.83,0,0,1-1.52-5.12q-.61-2.78-.94-5.61A62.69,62.69,0,0,1,293.84,319Z"/><path class="cls-14" d="M568.06,325a57.84,57.84,0,0,1-.46-7.58h-13v1.29a2.7,2.7,0,0,1-2.7,2.7h-16a2.7,2.7,0,0,1-2.7-2.7v-1.6a2.7,2.7,0,0,1,2.7-2.7h16a2.7,2.7,0,0,1,2.67,2.39h13.08q0-1.34.09-2.69A50.28,50.28,0,0,1,573.4,293,37.83,37.83,0,0,1,589,277.48a47.5,47.5,0,0,1,10.42-3.93c.9-.2,1.81-.38,2.72-.57.45-.09.91-.2,1.36-.27l1.37-.19c.92-.12,1.83-.26,2.75-.36l2.76-.19a52.47,52.47,0,0,1,11.08.45A42.61,42.61,0,0,1,627,273.6a36.43,36.43,0,0,1,5.27,1.89A37.86,37.86,0,0,1,648.89,290a51.47,51.47,0,0,1,7.32,20.61c.07.55.13,1.1.19,1.65l9-1.25a5.07,5.07,0,0,1,.79-1.53c1.63-2.24,5-4.19,7.91-3.67,1.09-10.93-.52-21.85-1.43-24.48-.23.27-.71.52-2,.8a2.68,2.68,0,0,1-.58.06,2.58,2.58,0,0,1-1.71-.64c-4.67-4.12-7.56-20.27-8-24.05a1.6,1.6,0,0,1,1.29-1.76,13,13,0,0,0,2.33-1c.42-.21.73-.36,1-.46a95.1,95.1,0,0,0-11.74-13.41.31.31,0,0,1,0,.11c-.26.52-1.51.93-2.61,1.07a7.69,7.69,0,0,1-.94.06,5.76,5.76,0,0,1-3.34-1l-.12-.08h0l-.07-.07a4.35,4.35,0,0,1-.52-.48c-4.15-3.89-29.55-27.38-47.08-37.88-1.8,0-3.59,0-5.39,0-2,0-4-.11-5.94-.12s-4,0-5.93.21a19.86,19.86,0,0,0-2.92.44,5.07,5.07,0,0,0-1.37.51,1.28,1.28,0,0,0-.5.49.77.77,0,0,0,0,.68h0a66.7,66.7,0,0,1,15.92,15.75,30.19,30.19,0,0,1,4.73,10.17,15.59,15.59,0,0,1,.29,5.63,11.4,11.4,0,0,1-2.12,5.22,14.69,14.69,0,0,1-4.21,3.76,19.55,19.55,0,0,1-5.21,2.18,91.28,91.28,0,0,1-11.14,1.69c-7.46.78-14.95,1.26-22.44,1.68q-10.89.6-21.8,1V315a2.18,2.18,0,0,1-.29,4.34l-130.07,1.48h0A2.18,2.18,0,0,1,398,319h-14.3a50.06,50.06,0,0,1-.32,8.1,32.93,32.93,0,0,1-1.16,5.59,17.89,17.89,0,0,1-1.07,2.65,7.79,7.79,0,0,1-1.67,2.28,1.38,1.38,0,0,0,.66.31,7.38,7.38,0,0,0,.73.15c.49.08,1,.13,1.48.18,1,.09,2,.14,3,.19,2,.09,4,.14,6,.17q6,.08,12,.05c8,0,15.95-.11,23.92-.19l47.84-.65,47.85-.66c8-.13,15.95-.23,23.92-.4,4-.06,8-.17,12-.29,2-.06,4-.14,6-.24,1,0,2-.11,3-.19.5,0,1-.09,1.48-.16a5.34,5.34,0,0,0,1.45-.33,40.92,40.92,0,0,1-1.61-5.17C568.62,328.63,568.28,326.84,568.06,325Z"/><path class="cls-15" d="M285.44,273a17.52,17.52,0,0,1,4.24-3.1,41.14,41.14,0,0,1,5.12-2.31,94.59,94.59,0,0,1,10.76-3.26c7.29-1.79,14.69-3.08,22.1-4.17,14.85-2.14,29.8-3.48,44.76-4.49q11.22-.75,22.47-1.21l3.46-.12-.06-2.64a3.7,3.7,0,0,1-2.79-1.43l0,0c-2.13,0-4.27,0-6.4-.11q-4.64-.15-9.28-.45c-3.09-.2-6.18-.45-9.26-.8-1.54-.18-3.08-.38-4.61-.64-.77-.13-1.53-.28-2.3-.47a8.27,8.27,0,0,1-2.27-.84l.06-.09c-7.39.41-18.08,1.29-29.35,3.09-18.12,2.88-41.3,8.77-49.37,20.43A5,5,0,0,1,285.44,273Z"/><path class="cls-16" d="M527.84,239.08c0,.95.08,1.9.17,2.82,0,.44.1.89.17,1.26,5.7.16,11.4.41,17.08.63q6-.12,11.94-.19c3.78,0,7.57-.08,11.35-.07,1.89,0,3.79,0,5.68.07.95,0,1.89.05,2.84.1l.6,0a16.28,16.28,0,0,0,2.45-.57,13.3,13.3,0,0,0,5.08-2.64,9.47,9.47,0,0,0,3.05-4.73,10.9,10.9,0,0,0,0-5.61,18,18,0,0,0-2.41-5.13c-1-1.63-2.1-3.22-3.22-4.78a83.91,83.91,0,0,0-7.34-8.82,34.5,34.5,0,0,0-4.17-3.73,10.16,10.16,0,0,0-2.2-1.28,14.24,14.24,0,0,0-2.5-.52c-3.73-.54-7.57-.81-11.39-1s-7.65-.34-11.46-.35c-1.9,0-3.8,0-5.69.1s-3.76.2-5.56.44a23,23,0,0,0-2.59.47,8.83,8.83,0,0,0-1.11.35,3.65,3.65,0,0,0-.55.26v1.12l0,2.9-.16,11.57c0,3.86-.12,7.71-.1,11.56C527.76,235.26,527.76,237.18,527.84,239.08Z"/><path class="cls-12" d="M424.93,267.24a2.08,2.08,0,0,0-1.51-3.52h-.06l-24.15.63.09,4.17,24.16-.63A2.07,2.07,0,0,0,424.93,267.24Z"/><path class="cls-17" d="M382.36,269.59h-.07a2.71,2.71,0,0,1-.07-5.42l16.36-.43-.2-8.94-3.45.12q-11.23.43-22.46,1.15c-15,1-29.9,2.29-44.75,4.38-7.42,1-14.82,2.28-22.11,4a94.48,94.48,0,0,0-10.77,3.18,41.08,41.08,0,0,0-5.13,2.27,17.5,17.5,0,0,0-4.26,3.07c.73,1.8.42,4.24,0,7.6-.12.93-.25,1.94-.37,3-.66,5.95-2.77,10.86-5.13,11.94a2.3,2.3,0,0,1-1,.22,2.07,2.07,0,0,1-.74-.15c.12,7.33.28,13.45.54,18.55a3.92,3.92,0,0,1,4.41.4,4.83,4.83,0,0,1,2.1,3.73h8.57c0-1,0-2.09.09-3.14a55.15,55.15,0,0,1,5.7-22.16,38.77,38.77,0,0,1,6.78-9.47,37.38,37.38,0,0,1,9.41-7,43.83,43.83,0,0,1,11.06-3.78l2.87-.52,2.89-.31c1-.13,1.93-.15,2.9-.18s1.93-.09,2.9-.08a46.66,46.66,0,0,1,22.47,5.51,40.41,40.41,0,0,1,9.23,7.17,43.86,43.86,0,0,1,6.84,9.39,57.1,57.1,0,0,1,6.52,21.93q.12,1.35.18,2.69H398a2.17,2.17,0,0,1,1.8-1.89l-1.07-47.34Z"/><path class="cls-18" d="M462.38,253.7l-45,.68c-6.14.1-12.27.21-18.4.4l.2,8.94,24.15-.63a2.72,2.72,0,0,1,1.93.74,2.71,2.71,0,0,1-1.79,4.67l-24.17.63,1.07,47.32L529.89,315v-63q-11.27.43-22.53.74Q484.87,253.31,462.38,253.7Z"/><path class="cls-19" d="M576.42,204.11a1.38,1.38,0,0,1,.52-.56,5.21,5.21,0,0,1,1.39-.59,20.09,20.09,0,0,1,2.94-.57c2-.24,4-.34,6-.4s4-.1,6,0c1.69.1,3.37.21,5,.43a39.73,39.73,0,0,0-9.84-4.5q-6.93.34-13.86.52c-3.53.12-7.07.15-10.6.23l-10.6.12c-3.53,0-7.07,0-10.6,0l-10.6-.18q-10.59-.28-21.19-.44c-14.12-.18-28.25-.29-42.35.1-7,.19-14.1.49-21.11,1.2A95.86,95.86,0,0,0,437.07,201a38.6,38.6,0,0,0-5.05,1.43,17.47,17.47,0,0,0-2.91,1.36l.56.18a5.21,5.21,0,0,0,.59.17l.27,0,.35,0,5.64.68,5.64.66,1,.11.8-.55.33-.21c.17-.1.32-.19.51-.27l.33-.12.17-.05.11,0,.43-.1c.5-.1.95-.16,1.38-.21.87-.1,1.71-.17,2.54-.23,1.67-.12,3.31-.2,5-.28q4.94-.21,9.85-.32c6.56-.12,13.1-.21,19.65-.2s13.09,0,19.64.13l9.82.2,4.91.11,2.45.08,1.23,0,.61,0c.21,0,.38,0,.71,0a.62.62,0,0,1,.13.13l.05.08.08.15a3.15,3.15,0,0,1,.13.3l0,.09a2.52,2.52,0,0,1,.19-.4,4.07,4.07,0,0,1,1-1.17,6.87,6.87,0,0,1,1.84-1.06,13,13,0,0,1,1.65-.53,25.79,25.79,0,0,1,3.1-.59,78.75,78.75,0,0,1,11.9-.42c3.92.12,7.82.4,11.7.82s7.74,1,11.63,1.78c.49.11,1,.22,1.47.35.26.07.46.11.79.23a5.64,5.64,0,0,1,.85.34,12.79,12.79,0,0,1,2.68,1.82,36.78,36.78,0,0,1,4.16,4.32,89.45,89.45,0,0,1,6.81,9.54c1,1.65,2,3.32,2.95,5a19.91,19.91,0,0,1,2.18,5.46,11.72,11.72,0,0,1-.24,5.84,10,10,0,0,1-3.28,4.75,13.75,13.75,0,0,1-5.17,2.56,15.41,15.41,0,0,1-2.37.53l.72.05.7.09.35.07c.1,0,.26.05.29.17,0-.12-.18-.14-.29-.17l-.35-.07-.7-.08-.75-.05-.44.08c-1,.15-1.92.19-2.88.29-3.86.19-7.73.22-11.59.29l-11.6.19c-6.9.16-13.83.31-20.71.63v6.22q10.89-.39,21.77-.95c7.48-.4,15-.87,22.42-1.63a91,91,0,0,0,11.09-1.65,16.75,16.75,0,0,0,9.26-5.8,11.11,11.11,0,0,0,2.11-5.08,15.34,15.34,0,0,0-.25-5.54,30,30,0,0,0-4.63-10.13,66.62,66.62,0,0,0-15.8-15.84h0A.85.85,0,0,1,576.42,204.11Z"/><path class="cls-8" d="M338.05,276.37a40.78,40.78,0,1,0,40.78,40.78A40.83,40.83,0,0,0,338.05,276.37Zm17,18c2.18,4,2.64,7.31,1.28,9.39-1.25,1.91-4.07,2.72-8,2.33,5.18-2.41,6.1-9,6.24-12.08Zm-17-5.69A28.13,28.13,0,0,1,354,293.55c-.07,2.82-.81,10-6.4,12.16a14.68,14.68,0,0,0-13.06-3.05c2.31-3.31,2.94-6.21,1.81-8.43s-3.9-3.52-8-3.86A28.16,28.16,0,0,1,338.05,288.65ZM327,290.91c4.58.1,7.67,1.37,8.79,3.6,1,2,.33,4.89-2,8.1.51-5.7-4.76-9.79-7.35-11.45Zm-1.22.55c2.4,1.47,8.25,5.7,7.34,11.62a14.78,14.78,0,0,0-9.18,9.79c-1.72-3.66-3.91-5.65-6.4-5.79s-5,1.61-7.32,5A28.38,28.38,0,0,1,325.74,291.47ZM310,313.53c2.32-3.78,4.85-5.82,7.27-5.82h.24c2.28.13,4.4,2.16,6,5.76-4.69-3.29-10.87-.77-13.6.65C309.92,313.93,309.94,313.73,310,313.53Zm-.21,3.41c0-.7,0-1.39.08-2.08,2.47-1.35,9.06-4.29,13.73-.54a14.66,14.66,0,0,0,3.91,12.84c-4-.34-6.86.56-8.22,2.64s-1.1,5.12.63,8.81A28.24,28.24,0,0,1,309.76,316.94ZM321,339.55c-2.18-4-2.64-7.31-1.28-9.39,1-1.6,3.18-2.43,6.15-2.43q.88,0,1.85.1c-5.18,2.41-6.1,9-6.24,12.08Zm17,5.69a28.13,28.13,0,0,1-15.91-4.91c.07-2.82.81-10,6.4-12.16a14.68,14.68,0,0,0,13.06,3.05c-2.31,3.31-2.94,6.21-1.81,8.43s3.9,3.53,8,3.86A28.17,28.17,0,0,1,338.05,345.24ZM349.14,343c-4.58-.11-7.67-1.37-8.79-3.59-1-2-.33-4.89,2-8.1-.51,5.7,4.76,9.79,7.35,11.45Zm1.22-.55c-2.4-1.47-8.25-5.7-7.34-11.62A14.78,14.78,0,0,0,352.2,321c1.72,3.66,3.91,5.65,6.4,5.79h.27c2.37,0,4.81-1.74,7.05-5A28.38,28.38,0,0,1,350.36,342.42Zm15.78-22.06c-2.39,3.9-5,6-7.5,5.82-2.28-.13-4.4-2.16-6-5.76,4.69,3.29,10.87.77,13.6-.65C366.19,320,366.16,320.16,366.14,320.35Zm.13-1.33c-2.47,1.35-9.06,4.29-13.73.54a14.66,14.66,0,0,0-3.91-12.84c.56,0,1.1.07,1.61.07,3.18,0,5.44-.92,6.62-2.72,1.34-2.06,1.1-5.12-.63-8.8a28.24,28.24,0,0,1,10.13,21.67C366.35,317.64,366.32,318.34,366.26,319Z"/><path class="cls-8" d="M612.28,276.37a40.78,40.78,0,1,0,40.78,40.78A40.83,40.83,0,0,0,612.28,276.37Zm17,18c2.18,4,2.64,7.31,1.28,9.39-1.25,1.91-4.07,2.72-8,2.33,5.18-2.41,6.1-9,6.24-12.08Zm-17-5.7a28.13,28.13,0,0,1,15.91,4.91c-.07,2.82-.81,10-6.4,12.16a14.68,14.68,0,0,0-13.06-3.05c2.31-3.31,2.94-6.21,1.81-8.43s-3.9-3.52-8-3.86A28.17,28.17,0,0,1,612.28,288.65Zm-11.09,2.27c4.58.1,7.67,1.37,8.79,3.6,1,2,.33,4.89-2,8.1.51-5.7-4.76-9.79-7.35-11.45Zm-1.22.55c2.4,1.47,8.25,5.7,7.34,11.62a14.79,14.79,0,0,0-9.18,9.79c-1.72-3.66-3.91-5.65-6.4-5.79s-5,1.61-7.32,5A28.38,28.38,0,0,1,600,291.47ZM584.2,313.53c2.32-3.78,4.85-5.82,7.27-5.82h.24c2.28.13,4.4,2.16,6,5.76-4.69-3.29-10.87-.77-13.6.65C584.15,313.93,584.18,313.73,584.2,313.53Zm-.21,3.41c0-.7,0-1.39.08-2.08,2.47-1.35,9.07-4.29,13.73-.54a14.65,14.65,0,0,0,3.91,12.84c-4-.34-6.86.56-8.22,2.64s-1.1,5.12.63,8.8A28.24,28.24,0,0,1,584,316.94Zm11.29,22.6c-2.18-4-2.64-7.31-1.28-9.39,1-1.6,3.18-2.43,6.15-2.43q.88,0,1.85.1c-5.18,2.41-6.1,9-6.24,12.08Zm17,5.69a28.13,28.13,0,0,1-15.91-4.91c.07-2.82.81-10,6.4-12.16a14.68,14.68,0,0,0,13.06,3.05c-2.31,3.31-2.94,6.21-1.81,8.43s3.9,3.53,8,3.86A28.17,28.17,0,0,1,612.28,345.24ZM623.38,343c-4.58-.11-7.67-1.37-8.79-3.59-1-2-.33-4.89,2-8.1-.51,5.7,4.76,9.79,7.35,11.45Zm1.22-.55c-2.4-1.47-8.25-5.7-7.34-11.62a14.78,14.78,0,0,0,9.18-9.79c1.72,3.66,3.91,5.65,6.4,5.79h.27c2.37,0,4.81-1.74,7.05-5A28.38,28.38,0,0,1,624.59,342.42Zm15.78-22.06c-2.39,3.9-5,6-7.5,5.82-2.28-.13-4.4-2.16-6-5.76,4.69,3.29,10.87.77,13.6-.65C640.42,320,640.39,320.16,640.37,320.35Zm.13-1.33c-2.47,1.35-9.06,4.29-13.73.54a14.66,14.66,0,0,0-3.91-12.84c.56,0,1.09.07,1.61.07,3.18,0,5.44-.92,6.62-2.72,1.34-2.06,1.1-5.12-.63-8.8a28.25,28.25,0,0,1,10.13,21.67C640.58,317.64,640.55,318.34,640.5,319Z"/><path class="cls-8" d="M670.58,272.92c-2.47-6.52-6.21-16.36-4.84-18.16.2-.26.12-.44,0-.53a.32.32,0,0,0-.2-.13,81.54,81.54,0,0,0-5.47-7c-2.28-2.65-6.41-7.24-8.49-8.17h0c-7.84-7.43-43.2-37.87-55.89-41.69v-.15l-.78-.06a5.63,5.63,0,0,0-1.94-.15c-6.15-.48-12.31-.82-18.46-1.11-3.53-.18-7.06-.29-10.6-.44l-10.6-.32c-3.53-.08-7.07-.15-10.6-.17h-10.6l-21.21.27c-14.14.19-28.29.46-42.43,1.23-7.07.43-14.14,1-21.17,1.93a96.23,96.23,0,0,0-10.47,2,39.27,39.27,0,0,0-5.08,1.65,17,17,0,0,0-3.3,1.76,3,3,0,0,0-.59,0,2,2,0,0,0-1.15.54l-.52.5-1,1c-2.76,2.57-5.54,5.14-8.34,7.69s-5.6,5.09-8.46,7.58c-5.72,5-11.56,9.78-17.63,14.31-3,2.27-6.11,4.46-9.32,6.46-1.61,1-3.25,1.93-4.95,2.75a18.05,18.05,0,0,1-4.81,1.63l-.07-.12c-.58-.23-73.64.84-89.53,24.21-.48-.05-1,.32-1.39,1.12-2.16,4-4.45,21.91-3.14,24,.47,28.3,1.62,37,5.33,40.62,1.92,1.85,4.54,2.16,8,2.16.81,0,1.67,0,2.58,0s2.17,0,3.37,0v-.31h0v-.31h-.08a50.36,50.36,0,0,1-1.64-10.81,68.19,68.19,0,0,1,.31-11.2,62.13,62.13,0,0,1,2.12-10.93,49.15,49.15,0,0,1,4.19-10.2,38.85,38.85,0,0,1,6.57-8.69,34.52,34.52,0,0,1,8.81-6.28,42.26,42.26,0,0,1,10.32-3.43l2.7-.47,2.74-.28a27,27,0,0,1,2.75-.16c.92,0,1.84-.07,2.76-.07a44.12,44.12,0,0,1,21.07,5,37.57,37.57,0,0,1,8.71,6.49,44.61,44.61,0,0,1,6.68,8.68A53.76,53.76,0,0,1,379.4,305,60.63,60.63,0,0,1,382,315.88a55.14,55.14,0,0,1,.54,11.16,32.78,32.78,0,0,1-.76,5.55,17.54,17.54,0,0,1-.83,2.67,7.68,7.68,0,0,1-1.46,2.38,7.79,7.79,0,0,0,1.67-2.28,17.89,17.89,0,0,0,1.07-2.65,32.93,32.93,0,0,0,1.16-5.59,50.06,50.06,0,0,0,.32-8.1H398a2.18,2.18,0,0,0,2.15,1.82h0l130.07-1.48a2.18,2.18,0,0,0,.29-4.34v-63.1q10.9-.42,21.8-1c7.49-.42,15-.9,22.44-1.68a91.28,91.28,0,0,0,11.14-1.69,19.55,19.55,0,0,0,5.21-2.18,14.69,14.69,0,0,0,4.21-3.76,11.4,11.4,0,0,0,2.12-5.22,15.59,15.59,0,0,0-.29-5.63,30.19,30.19,0,0,0-4.73-10.17,66.7,66.7,0,0,0-15.92-15.75,66.62,66.62,0,0,1,15.8,15.84,30,30,0,0,1,4.63,10.13,15.34,15.34,0,0,1,.25,5.54,11.11,11.11,0,0,1-2.11,5.08,16.75,16.75,0,0,1-9.26,5.8,91,91,0,0,1-11.09,1.65c-7.45.76-14.94,1.22-22.42,1.63q-10.88.57-21.77.95v-6.22c6.88-.33,13.81-.47,20.71-.63l11.6-.19c3.87-.07,7.73-.1,11.59-.29-9.16.31-18.3.07-27.45-.27q5.12-.11,10.24-.19c3.78-.06,7.57-.1,11.35-.1,1.89,0,3.78,0,5.68,0,.95,0,1.89,0,2.84.09l.57,0-.35.07c-1,.15-1.92.21-2.88.31,1-.1,1.93-.15,2.88-.29l.44-.08.75.05.7.08.35.07c.1,0,.26,0,.29.17,0-.12-.18-.14-.29-.17l-.35-.07-.7-.09-.72-.05a15.41,15.41,0,0,0,2.37-.53,13.75,13.75,0,0,0,5.17-2.56,10,10,0,0,0,3.28-4.75,11.72,11.72,0,0,0,.24-5.84,19.91,19.91,0,0,0-2.18-5.46c-.92-1.72-1.91-3.39-2.95-5a89.45,89.45,0,0,0-6.81-9.54,36.78,36.78,0,0,0-4.16-4.32,12.79,12.79,0,0,0-2.68-1.82,5.64,5.64,0,0,0-.85-.34c-.33-.11-.53-.16-.79-.23-.49-.13-1-.24-1.47-.35-3.88-.81-7.74-1.35-11.63-1.78s-7.78-.7-11.7-.82a78.75,78.75,0,0,0-11.9.42,25.79,25.79,0,0,0-3.1.59,13,13,0,0,0-1.65.53,6.87,6.87,0,0,0-1.84,1.06,4.07,4.07,0,0,0-1,1.17,2.52,2.52,0,0,0-.19.4l0-.09a3.15,3.15,0,0,0-.13-.3l-.08-.15-.05-.08a.62.62,0,0,0-.13-.13c-.33,0-.5,0-.71,0l-.61,0-1.23,0-2.45-.08-4.91-.11-9.82-.2c-6.55-.09-13.09-.14-19.64-.13s-13.1.08-19.65.2q-4.92.1-9.85.32c-1.65.07-3.29.16-5,.28-.83.06-1.67.13-2.54.23-.43,0-.88.11-1.38.21l-.43.1-.11,0-.17.05-.33.12c-.19.09-.34.18-.51.27l-.33.21-.8.55-1-.11-5.64-.66-5.64-.68-.35,0-.27,0a5.21,5.21,0,0,1-.59-.17l-.56-.18a17.47,17.47,0,0,1,2.91-1.36,38.6,38.6,0,0,1,5.05-1.43,95.86,95.86,0,0,1,10.42-1.58c7-.72,14.06-1,21.11-1.2,14.1-.39,28.23-.28,42.35-.1q10.59.16,21.19.44l10.6.18c3.53,0,7.07,0,10.6,0l10.6-.12c3.53-.08,7.07-.12,10.6-.23q6.93-.19,13.86-.52a39.73,39.73,0,0,1,9.84,4.5c-1.68-.21-3.36-.33-5-.43-2-.1-4-.05-6,0s-4,.16-6,.4a20.09,20.09,0,0,0-2.94.57,5.21,5.21,0,0,0-1.39.59,1.38,1.38,0,0,0-.52.56.85.85,0,0,0,0,.75h.06a.77.77,0,0,1,0-.68,1.28,1.28,0,0,1,.5-.49,5.07,5.07,0,0,1,1.37-.51,19.86,19.86,0,0,1,2.92-.44c2-.18,4-.21,5.93-.21s4,.1,5.94.12c1.79,0,3.59,0,5.39,0,17.53,10.49,42.93,34,47.08,37.88a4.35,4.35,0,0,0,.52.48l.07.07h0l.12.08a5.76,5.76,0,0,0,3.34,1,7.69,7.69,0,0,0,.94-.06c1.1-.14,2.35-.55,2.61-1.07a.31.31,0,0,0,0-.11A95.1,95.1,0,0,1,665,254.26c-.24.1-.54.25-1,.46a13,13,0,0,1-2.33,1,1.6,1.6,0,0,0-1.29,1.76c.46,3.78,3.35,19.93,8,24.05a2.58,2.58,0,0,0,1.71.64,2.68,2.68,0,0,0,.58-.06c1.27-.28,1.75-.53,2-.8.92,2.62,2.52,13.55,1.43,24.48-2.87-.52-6.28,1.44-7.91,3.67a5.07,5.07,0,0,0-.79,1.53l-9,1.25c-.06-.55-.12-1.1-.19-1.65A51.47,51.47,0,0,0,648.89,290a37.86,37.86,0,0,0-16.65-14.48A36.43,36.43,0,0,0,627,273.6a42.61,42.61,0,0,0-5.46-1.16,52.47,52.47,0,0,0-11.08-.45l-2.76.19c-.92.09-1.83.24-2.75.36l-1.37.19c-.46.07-.91.18-1.36.27-.91.19-1.82.37-2.72.57A47.5,47.5,0,0,0,589,277.48,37.83,37.83,0,0,0,573.4,293a50.28,50.28,0,0,0-5.72,21.11q-.07,1.34-.09,2.69H554.51a2.7,2.7,0,0,0-2.67-2.39h-16a2.7,2.7,0,0,0-2.7,2.7v1.6a2.7,2.7,0,0,0,2.7,2.7h16a2.7,2.7,0,0,0,2.7-2.7v-1.29h13a57.84,57.84,0,0,0,.46,7.58c.22,1.8.56,3.59.95,5.35a40.92,40.92,0,0,0,1.61,5.17,48.06,48.06,0,0,1-1.7-10.6,63,63,0,0,1,0-7.5h1.69v-.62H569c.06-.86.14-1.71.24-2.56a50.73,50.73,0,0,1,6.31-20,36.1,36.1,0,0,1,14.89-14.13,46.37,46.37,0,0,1,9.77-3.59l2.57-.52c.43-.08.86-.18,1.29-.24l1.31-.17c.87-.1,1.74-.24,2.61-.32l2.63-.17a44.6,44.6,0,0,1,20.47,3.1,36.15,36.15,0,0,1,15.8,13.12,52,52,0,0,1,7.84,19.51,53.86,53.86,0,0,1,1,10.62,33.1,33.1,0,0,1-.43,5.33,16.44,16.44,0,0,1-.63,2.6,6.47,6.47,0,0,1-1,2h-.27V332c7.68,0,13.45-3.5,17.14-10.4,7.59-14.18,4-38.15,2.58-41C673.22,280,672.67,278.42,670.58,272.92Zm-338.51-23c11.27-1.79,22-2.67,29.35-3.09l-.06.09a8.27,8.27,0,0,0,2.27.84c.76.18,1.53.33,2.3.47,1.53.26,3.07.46,4.61.64,3.08.35,6.17.6,9.26.8s6.19.35,9.28.45c2.13.06,4.26.11,6.4.11l0,0a3.7,3.7,0,0,0,2.79,1.43l.06,2.64-3.46.12q-11.24.46-22.47,1.21c-15,1-29.91,2.36-44.76,4.49-7.42,1.1-14.82,2.39-22.1,4.17a94.59,94.59,0,0,0-10.76,3.26,41.14,41.14,0,0,0-5.12,2.31,17.52,17.52,0,0,0-4.24,3.1,5,5,0,0,0-2.73-2.64C290.78,258.71,314,252.83,332.08,249.94Zm-50.57,21.22c.24-.33.44-.46.61-.39,3.75,1.58,3.39,4.31,2.68,9.75-.12.94-.25,1.95-.37,3-.63,5.65-2.63,10.46-4.77,11.45a1.52,1.52,0,0,1-1.59-.12C277.09,293.71,278.95,274.72,281.51,271.17Zm-2.72,43.76a3.29,3.29,0,0,1,4,.18c1.42,1,2.15,2.72,1.71,3.91-.5,1.36-2.39,2-5.31,1.82C279,319.05,278.9,317.09,278.79,314.93Zm16.43,17.28a40.83,40.83,0,0,0,1.52,5.12c-1.16,0-2.25,0-3.27,0-4.79.09-7.94.16-10.13-2s-3.36-6.36-4.08-14l.88,0c3.55,0,4.63-1.38,5-2.26a2.77,2.77,0,0,0,.1-.32v0h8.65a62.69,62.69,0,0,0,.44,7.64Q294.61,329.43,295.22,332.21ZM398,318.39H383.66q-.06-1.35-.18-2.69A57.1,57.1,0,0,0,377,293.76a43.86,43.86,0,0,0-6.84-9.39,40.41,40.41,0,0,0-9.23-7.17,46.66,46.66,0,0,0-22.47-5.51c-1,0-1.93.06-2.9.08s-1.93.05-2.9.18l-2.89.31-2.87.52a43.83,43.83,0,0,0-11.06,3.78,37.38,37.38,0,0,0-9.41,7,38.77,38.77,0,0,0-6.78,9.47,55.15,55.15,0,0,0-5.7,22.16c-.05,1-.08,2.09-.09,3.14h-8.57a4.83,4.83,0,0,0-2.1-3.73,3.92,3.92,0,0,0-4.41-.4c-.26-5.1-.42-11.23-.54-18.55a2.07,2.07,0,0,0,.74.15,2.3,2.3,0,0,0,1-.22c2.36-1.09,4.46-6,5.13-11.94.12-1.09.25-2.09.37-3,.44-3.36.75-5.8,0-7.6a17.5,17.5,0,0,1,4.26-3.07,41.08,41.08,0,0,1,5.13-2.27,94.48,94.48,0,0,1,10.77-3.18c7.29-1.74,14.69-3,22.11-4,14.84-2.09,29.79-3.4,44.75-4.38q11.22-.72,22.46-1.15l3.45-.12.2,8.94-16.36.43a2.71,2.71,0,0,0,.07,5.42h.07l16.34-.43,1.07,47.34A2.17,2.17,0,0,0,398,318.39Zm.61-54,.09,4.17-16.34.43a2.09,2.09,0,0,1-2.14-2,2.09,2.09,0,0,1,2-2.14Zm.62,0,24.15-.63h.06a2.08,2.08,0,0,1,.05,4.17l-24.16.63ZM529.89,315,400.4,316.46l-1.07-47.32,24.17-.63a2.71,2.71,0,0,0,1.79-4.67,2.72,2.72,0,0,0-1.93-.74l-24.15.63-.2-8.94c6.13-.19,12.27-.3,18.4-.4l45-.68q22.49-.42,45-1,11.27-.33,22.53-.74Zm-2.05-93.21L528,210.2l0-2.9v-1.12a3.65,3.65,0,0,1,.55-.26,8.83,8.83,0,0,1,1.11-.35,23,23,0,0,1,2.59-.47c1.8-.25,3.68-.37,5.56-.44s3.79-.11,5.69-.1c3.81,0,7.64.14,11.46.35s7.66.48,11.39,1a14.24,14.24,0,0,1,2.5.52,10.16,10.16,0,0,1,2.2,1.28,34.5,34.5,0,0,1,4.17,3.73,83.91,83.91,0,0,1,7.34,8.82c1.12,1.56,2.21,3.15,3.22,4.78a18,18,0,0,1,2.41,5.13,10.9,10.9,0,0,1,0,5.61,9.47,9.47,0,0,1-3.05,4.73,13.3,13.3,0,0,1-5.08,2.64,16.28,16.28,0,0,1-2.45.57l-.6,0c-.94-.05-1.89-.08-2.84-.1-1.89,0-3.78-.06-5.68-.07-3.78,0-7.57,0-11.35.07q-6,.07-11.94.19c-5.68-.22-11.38-.46-17.08-.63-.08-.37-.13-.82-.17-1.26-.09-.92-.13-1.87-.17-2.82-.07-1.9-.08-3.83-.09-5.75C527.72,229.49,527.79,225.63,527.84,221.78Zm-.23,21.37h0Zm-1.15,1.72a1.87,1.87,0,0,0,.16.15c0,.06,0,.07,0,0l.11.11a.94.94,0,0,0,.25.13,1.45,1.45,0,0,0,.36.09h.33l.36,0,1.83-.09v6.21q-11.27.4-22.55.68-22.48.58-45,.92l-45,.79c-6.13.12-12.27.24-18.4.44l-.06-2.63.36,0,1.23-.06,9.81-.49q39.21-2,78.4-4.2l19.59-1.12,9.8-.56L523,245l2.45-.13,1,0Zm-80-36.2h0Zm-4,3,1.92-1.48c.63-.48,1.3-1,1.88-1.37l.19-.13,0,0,.16,0c.3-.06.66-.13,1-.18.75-.11,1.54-.2,2.34-.27,1.59-.16,3.21-.28,4.83-.39,3.24-.23,6.5-.4,9.76-.58,6.52-.38,13-.64,19.58-1l19.6-1,9.8-.53,4.9-.26,2.45-.15,1.23-.07.61,0a3.09,3.09,0,0,0,.49,0l0,0,.06.12a2.7,2.7,0,0,1,.1.26c.06.18.12.37.16.57s0,.24.07.36a3.08,3.08,0,0,0,0,.42l0,1.37,0,2.9q.07,5.81.28,11.62c.14,3.87.36,7.75.62,11.63.13,1.94.31,3.88.53,5.83.11,1,.23,2,.41,3,.06.31.12.61.19.93,0,.1,0,.2,0,.3h-.43l-2.45.08-4.9.16-9.81.34-19.61.69c-26.15,1-52.3,2-78.44,2.89l-9.8.3-1.22,0-.61,0h-.07s0,0,0,0,0,0,0-.05,0,0,0,0h0l.06-.05.11-.1.44-.41,1.79-1.63c4.84-4.32,9.87-8.49,14.91-12.62s10.12-8.25,15.22-12.32l7.65-6.1Zm-13.38-6a6.74,6.74,0,0,0,.79.2l.43.05.36,0c1.9.12,3.79.26,5.69.35s3.79.17,5.68.2l-.27.2-2,1.48-3.92,3c-2.59,2-5.16,4.06-7.72,6.11q-7.64,6.19-15.14,12.56c-5,4.27-9.92,8.58-14.75,13.08l-1.8,1.71L396,245l-.11.11-.16.16a3.69,3.69,0,0,0-.38.46,3.77,3.77,0,0,0-.69,2.32,3.83,3.83,0,0,0,.46,1.66c-2,0-4-.06-6-.12q-4.63-.16-9.26-.47c-3.08-.21-6.17-.47-9.23-.82-1.53-.18-3.06-.38-4.58-.65-.76-.13-1.51-.28-2.25-.46-.43-.11-.86-.23-1.27-.39,4.61-.24,7.76-.29,8.68-.28v.06c.38,0,.59,0,.64-.3v0a18.55,18.55,0,0,0,4.86-1.49c1.74-.78,3.42-1.67,5.08-2.61,3.3-1.9,6.47-4,9.58-6.18,6.21-4.39,12.18-9.09,18-13.92s11.71-9.69,17.12-15.06l1-1,.49-.5c.06-.06,0-.05.11-.07A3,3,0,0,1,429.14,205.62Zm221.25,35.81a5.38,5.38,0,0,1-3.8-.89l-.18-.17h0a3.7,3.7,0,0,1-.35-.33h0c-5.26-5.11-39.56-36.5-55.85-42.21l4.18-.25c4.83.81,15.79,7.85,31.38,20.19,13.26,10.5,25.53,21.46,26.81,23A5.06,5.06,0,0,1,650.39,241.42Zm21.89,39.35c-.05.14-.14.38-1.7.73a2,2,0,0,1-1.73-.43c-4.2-3.7-7.2-18.64-7.82-23.66a1,1,0,0,1,.8-1.07,12.93,12.93,0,0,0,2.49-1L665,255c-.74,2.59,1.84,9.79,5,18.19,1.25,3.28,2.53,6.68,2.48,7.3A.79.79,0,0,0,672.28,280.77ZM544.87,320.83H535.8a2.08,2.08,0,0,1-2.08-2.08v-1.6a2.08,2.08,0,0,1,2.08-2.08h9.07Zm9.05-2.08a2.08,2.08,0,0,1-2.08,2.08h-6.35v-5.75h6.35a2.08,2.08,0,0,1,2.08,2.08Zm116,2.56c-3.52,6.58-9,10-16.27,10.06a6.66,6.66,0,0,0,1.2-1.91,16.78,16.78,0,0,0,.87-2.58,33.17,33.17,0,0,0,.83-5.39,50,50,0,0,0-.12-8.63l8.83-1.23a2,2,0,0,0,.29,1.26c.41.64,1.36,1.26,3.52,1.26a18.9,18.9,0,0,0,3.66-.43A33.38,33.38,0,0,1,669.94,321.31Zm2.87-7.76-.09-.44c-4.81,1-6.21.08-6.61-.55s-.2-1.64.6-2.73c1.53-2.09,4.71-3.93,7.34-3.42A54.46,54.46,0,0,1,672.81,313.54Z"/><path class="cls-8" d="M567.69,336.05c-1,.08-2,.14-3,.19-2,.11-4,.18-6,.24-4,.12-8,.23-12,.29-8,.17-15.95.27-23.92.4l-47.85.66-47.84.65c-8,.08-15.95.18-23.92.19q-6,0-12-.05c-2,0-4-.08-6-.17-1,0-2-.1-3-.19-.5,0-1-.1-1.48-.18a7.38,7.38,0,0,1-.73-.15,1.38,1.38,0,0,1-.66-.31,1.41,1.41,0,0,0,.65.37,7.46,7.46,0,0,0,.72.21c.49.12,1,.21,1.47.29,1,.17,2,.3,3,.42,2,.23,4,.4,6,.56,4,.31,8,.52,12,.72q12,.52,23.95.71c8,.17,16,.18,23.95.21s16-.08,23.95-.16,16-.29,23.94-.5,16-.47,23.93-.85,15.95-.77,23.92-1.3c4-.29,8-.58,11.94-1,2-.19,4-.39,6-.64,1-.13,2-.26,3-.43.49-.08,1-.17,1.48-.27a5.38,5.38,0,0,0,1.43-.45,5.34,5.34,0,0,1-1.45.33C568.68,336,568.18,336,567.69,336.05Z"/></svg>