<svg xmlns="http://www.w3.org/2000/svg" xmlns:xlink="http://www.w3.org/1999/xlink" viewBox="0 0 841.89 595.28"><defs><style>.cls-1{isolation:isolate;}.cls-2{mix-blend-mode:hard-light;fill:url(#linear-gradient);}.cls-3{fill:url(#linear-gradient-2);}.cls-4{fill:url(#linear-gradient-3);}.cls-5{fill:url(#linear-gradient-4);}.cls-6{fill:url(#linear-gradient-5);}.cls-7{fill:url(#linear-gradient-6);}.cls-8{fill:url(#linear-gradient-7);}.cls-9{fill:url(#linear-gradient-8);}.cls-10{fill:url(#linear-gradient-9);}.cls-11{fill:url(#linear-gradient-10);}.cls-12{fill:url(#linear-gradient-11);}.cls-13{fill:url(#linear-gradient-12);}.cls-14{fill:url(#linear-gradient-13);}.cls-15{fill:url(#linear-gradient-14);}.cls-16{fill:url(#linear-gradient-15);}.cls-17{fill:#020202;opacity:0.2;}.cls-18{fill:url(#linear-gradient-16);}.cls-19{fill:url(#linear-gradient-17);}.cls-20{fill:url(#linear-gradient-18);}</style><linearGradient id="linear-gradient" x1="420.2" y1="4.11" x2="421.7" y2="595.09" gradientUnits="userSpaceOnUse"><stop offset="0" stop-color="#00aeef"/><stop offset="0.24" stop-color="#2988d4"/><stop offset="0.59" stop-color="#6154af"/><stop offset="0.86" stop-color="#853398"/><stop offset="1" stop-color="#92278f"/></linearGradient><linearGradient id="linear-gradient-2" x1="494.01" y1="349.04" x2="628.84" y2="349.04" gradientUnits="userSpaceOnUse"><stop offset="0" stop-color="#2e3192"/><stop offset="0.03" stop-color="#262262"/><stop offset="1" stop-color="#662d91"/></linearGradient><linearGradient id="linear-gradient-3" x1="531.55" y1="302.72" x2="591.3" y2="302.72" gradientUnits="userSpaceOnUse"><stop offset="0" stop-color="#00a79d"/><stop offset="1" stop-color="#662d91"/></linearGradient><linearGradient id="linear-gradient-4" x1="288.88" y1="263.57" x2="576.3" y2="263.57" gradientUnits="userSpaceOnUse"><stop offset="0" stop-color="#2e3192"/><stop offset="1" stop-color="#662d91"/></linearGradient><linearGradient id="linear-gradient-5" x1="390.67" y1="144.31" x2="474.51" y2="144.31" gradientUnits="userSpaceOnUse"><stop offset="0" stop-color="#c49a6c"/><stop offset="1" stop-color="#662d91"/></linearGradient><linearGradient id="linear-gradient-6" x1="239.61" y1="329.16" x2="374.45" y2="329.16" gradientUnits="userSpaceOnUse"><stop offset="0" stop-color="#1b75bc"/><stop offset="1" stop-color="#662d91"/></linearGradient><linearGradient id="linear-gradient-7" x1="282" y1="264.55" x2="332.07" y2="264.55" xlink:href="#linear-gradient-3"/><linearGradient id="linear-gradient-8" x1="34.48" y1="282.78" x2="321.9" y2="282.78" gradientUnits="userSpaceOnUse"><stop offset="0" stop-color="#92278f"/><stop offset="1" stop-color="#662d91"/></linearGradient><linearGradient id="linear-gradient-9" x1="555.68" y1="299.43" x2="839.5" y2="299.43" gradientUnits="userSpaceOnUse"><stop offset="0" stop-color="#ec008c"/><stop offset="1" stop-color="#662d91"/></linearGradient><linearGradient id="linear-gradient-10" x1="634.07" y1="231.66" x2="761.12" y2="231.66" gradientUnits="userSpaceOnUse"><stop offset="0" stop-color="#fff200"/><stop offset="1" stop-color="#662d91"/></linearGradient><linearGradient id="linear-gradient-11" x1="356.59" y1="339.74" x2="528.07" y2="339.74" gradientUnits="userSpaceOnUse"><stop offset="0" stop-color="#ed1c24"/><stop offset="1" stop-color="#662d91"/></linearGradient><linearGradient id="linear-gradient-12" x1="394.77" y1="295.79" x2="489.89" y2="295.79" gradientUnits="userSpaceOnUse"><stop offset="0" stop-color="#fbb040"/><stop offset="1" stop-color="#662d91"/></linearGradient><linearGradient id="linear-gradient-13" x1="119.46" y1="194.58" x2="236.92" y2="194.58" gradientUnits="userSpaceOnUse"><stop offset="0" stop-color="#e6e7e8"/><stop offset="1" stop-color="#662d91"/></linearGradient><linearGradient id="linear-gradient-14" x1="-21.5" y1="402.57" x2="540.81" y2="664.73" gradientUnits="userSpaceOnUse"><stop offset="0" stop-color="#2bb673"/><stop offset="0.18" stop-color="#2c9a7a"/><stop offset="0.56" stop-color="#2d6287"/><stop offset="0.85" stop-color="#2e3e8f"/><stop offset="1" stop-color="#2e3192"/></linearGradient><linearGradient id="linear-gradient-15" x1="385.65" y1="397.35" x2="834.1" y2="606.43" gradientUnits="userSpaceOnUse"><stop offset="0" stop-color="#2bb673"/><stop offset="0.04" stop-color="#2bb578"/><stop offset="0.49" stop-color="#29afb1"/><stop offset="0.82" stop-color="#27abd4"/><stop offset="1" stop-color="#27aae1"/></linearGradient><linearGradient id="linear-gradient-16" x1="657.23" y1="333.32" x2="736.07" y2="370.08" gradientUnits="userSpaceOnUse"><stop offset="0" stop-color="#00a79d"/><stop offset="0.12" stop-color="#228f9b"/><stop offset="0.44" stop-color="#775394"/><stop offset="0.71" stop-color="#b62690"/><stop offset="0.9" stop-color="#dd0a8d"/><stop offset="1" stop-color="#ec008c"/></linearGradient><linearGradient id="linear-gradient-17" x1="141.05" y1="315.28" x2="197.37" y2="341.54" gradientUnits="userSpaceOnUse"><stop offset="0" stop-color="#ed1c24"/><stop offset="0.34" stop-color="#a2244f"/><stop offset="0.65" stop-color="#642b73"/><stop offset="0.88" stop-color="#3d2f89"/><stop offset="1" stop-color="#2e3192"/></linearGradient><linearGradient id="linear-gradient-18" x1="-86.88" y1="437.34" x2="-31.04" y2="463.38" gradientTransform="matrix(-1, 0, 0, 1, 387.69, 0)" gradientUnits="userSpaceOnUse"><stop offset="0" stop-color="#ec008c"/><stop offset="0.34" stop-color="#9f4882"/><stop offset="0.66" stop-color="#61837a"/><stop offset="0.88" stop-color="#3aa875"/><stop offset="1" stop-color="#2bb673"/></linearGradient></defs><title>Moon</title><g class="cls-1"><g id="Layer_1" data-name="Layer 1"><rect class="cls-2" width="841.89" height="595.28"/><polygon class="cls-3" points="561.43 431.93 494.01 431.93 527.72 349.04 561.43 266.14 595.13 349.04 628.84 431.93 561.43 431.93"/><polygon class="cls-4" points="561.43 339.45 531.55 339.45 546.49 302.72 561.43 265.98 576.36 302.72 591.3 339.45 561.43 339.45"/><polygon class="cls-5" points="432.59 431.93 288.88 431.93 360.74 263.56 432.59 95.2 504.44 263.56 576.3 431.93 432.59 431.93"/><polygon class="cls-6" points="432.59 193.41 390.67 193.41 411.63 144.31 432.59 95.2 453.55 144.31 474.5 193.41 432.59 193.41"/><polygon class="cls-7" points="307.03 431.93 239.61 431.93 273.32 329.16 307.03 226.38 340.74 329.16 374.45 431.93 307.03 431.93"/><polygon class="cls-8" points="307.03 302.72 282 302.72 294.51 264.55 307.03 226.38 319.55 264.55 332.07 302.72 307.03 302.72"/><polygon class="cls-9" points="178.19 431.93 34.48 431.93 106.34 282.78 178.19 133.63 250.05 282.78 321.9 431.93 178.19 431.93"/><polygon class="cls-10" points="697.59 422.13 555.68 422.13 626.64 299.43 697.59 176.74 768.55 299.43 839.5 422.13 697.59 422.13"/><polygon class="cls-11" points="697.59 286.58 634.07 286.58 665.83 231.66 697.59 176.74 729.36 231.66 761.12 286.58 697.59 286.58"/><polygon class="cls-12" points="442.33 437.13 356.59 437.13 399.46 339.74 442.33 242.34 485.2 339.74 528.07 437.13 442.33 437.13"/><polygon class="cls-13" points="442.33 349.81 394.77 349.81 418.55 295.79 442.33 241.76 466.11 295.79 489.89 349.81 442.33 349.81"/><polygon class="cls-14" points="178.19 133.63 207.56 194.58 236.92 255.53 178.19 255.53 119.46 255.53 148.83 194.58 178.19 133.63"/><path class="cls-15" d="M576.44,595.28H0V342.64c85.25-22.21,200.31-11.9,315.18,35.07A644.51,644.51,0,0,1,423.54,434.3C495.23,481.12,548.84,538.2,576.44,595.28Z"/><path class="cls-16" d="M841.89,370.79V595.28H297c6.21-60.61,53.55-118,126.58-161,62.81-37,144.63-63.42,235.62-72.18C724.31,355.85,786.56,359.35,841.89,370.79Z"/><path class="cls-17" d="M736.59,448.52l-44.67-36,16-16,35.88,44.73c12.2-8.42,30.06-6.31,42.09,5.72,14,14,14.56,35.81.81,47.52-11.51,9.8-29.72,8.84-42.39-2.24C730.61,480.35,727.81,461.35,736.59,448.52Z"/><path class="cls-18" d="M707,358.26l7.1,59H688l7.22-59a35.46,35.46,0,1,1,11.73,0Z"/><path class="cls-17" d="M197.75,397.58l-31.91-25.69,11.41-11.41,25.63,32c8.72-6,21.48-4.51,30.07,4.09,10,10,10.4,25.58.58,33.95-8.22,7-21.23,6.32-30.28-1.6C193.48,420.32,191.48,406.75,197.75,397.58Z"/><path class="cls-19" d="M176.58,333.1l5.07,42.16h-18.6l5.15-42.14a25.33,25.33,0,1,1,8.38,0Z"/><path class="cls-17" d="M418.35,518.93,450,493.46l-11.31-11.31-25.41,31.68c-8.64-6-21.29-4.47-29.81,4.05-9.9,9.9-10.32,25.37-.57,33.66,8.15,6.94,21.05,6.26,30-1.59C422.59,541.48,424.57,528,418.35,518.93Z"/><path class="cls-20" d="M439.34,455l-5,41.8h18.45L447.65,455a25.12,25.12,0,1,0-8.3,0Z"/></g></g></svg>